<?xml version="1.0" standalone="no"?>
<!DOCTYPE svg PUBLIC "-//W3C//DTD SVG 20010904//EN"
 "http://www.w3.org/TR/2001/REC-SVG-20010904/DTD/svg10.dtd">
<svg version="1.0" xmlns="http://www.w3.org/2000/svg"
 width="358.000000pt" height="55.000000pt" viewBox="0 0 358.000000 55.000000"
 preserveAspectRatio="xMidYMid meet">

<g transform="translate(0.000000,55.000000) scale(0.100000,-0.100000)"
fill="#000000" stroke="none">
<path d="M1905 508 c-2 -7 -32 -85 -66 -173 -33 -88 -74 -195 -90 -237 l-28
-78 39 0 c22 0 40 4 40 10 0 5 9 34 21 65 l20 55 99 0 99 0 20 -55 c12 -31 21
-60 21 -65 0 -6 18 -10 40 -10 l39 0 -28 78 c-16 42 -59 154 -94 247 -64 166
-66 170 -96 173 -19 2 -33 -2 -36 -10z m76 -198 l36 -100 -77 0 -77 0 36 100
c20 55 38 100 41 100 3 0 21 -45 41 -100z"/>
<path d="M2160 508 c1 -7 27 -119 58 -248 l57 -235 34 0 34 0 51 177 c28 98
53 178 56 178 3 0 28 -80 55 -178 l50 -177 32 -3 c37 -4 27 -31 102 278 27
113 47 208 45 212 -3 5 -18 8 -34 8 -22 0 -31 -6 -35 -22 -3 -13 -22 -99 -43
-191 l-38 -168 -38 138 c-71 261 -64 243 -96 243 -25 0 -31 -5 -40 -37 -5 -21
-29 -107 -53 -191 l-43 -153 -23 103 c-13 57 -32 142 -43 191 l-21 87 -33 0
c-21 0 -34 -5 -34 -12z"/>
<path d="M2842 280 c-51 -132 -92 -245 -92 -250 0 -6 15 -10 34 -10 33 0 35 2
56 65 l22 66 100 -3 101 -3 22 -60 c22 -57 24 -60 60 -63 32 -3 36 -1 31 15
-3 10 -46 122 -94 248 -87 227 -88 230 -118 233 l-31 3 -91 -241z m126 -68
c-39 -2 -72 -1 -75 2 -4 3 34 119 63 190 5 14 16 -7 44 -85 l38 -104 -70 -3z"/>
<path d="M3160 513 c0 -5 38 -77 85 -162 l85 -155 0 -88 0 -88 35 0 35 0 0 95
0 94 80 146 c44 80 80 150 80 156 0 6 -16 9 -37 7 -36 -3 -38 -5 -99 -122
l-62 -118 -45 83 c-25 46 -53 101 -63 122 -16 33 -22 37 -56 37 -21 0 -38 -3
-38 -7z"/>
</g>
</svg>
